<svg width="24" height="24" viewBox="0 0 24 24" fill="none" xmlns="http://www.w3.org/2000/svg">
<path d="M14 1.375V1.37598C14.3986 1.37546 14.7938 1.45288 15.1621 1.60547C15.5301 1.75797 15.8642 1.98169 16.1455 2.26367L19.7324 5.85059C20.0158 6.1323 20.2404 6.46784 20.3936 6.83691C20.5466 7.20563 20.6255 7.6008 20.625 8V20C20.625 20.6962 20.3487 21.3642 19.8564 21.8564C19.3642 22.3487 18.6962 22.625 18 22.625H6C5.30381 22.625 4.63584 22.3487 4.14355 21.8564C3.65127 21.3642 3.375 20.6962 3.375 20V4C3.375 3.30381 3.65127 2.63584 4.14355 2.14355C4.63584 1.65127 5.30381 1.375 6 1.375H14Z" fill="white" stroke="black" stroke-width="1.25" stroke-linecap="round" stroke-linejoin="round"/>
<path d="M14 2V7C14 7.26522 14.1054 7.51957 14.2929 7.70711C14.4804 7.89464 14.7348 8 15 8H20" stroke="black" stroke-width="1.25" stroke-linecap="round" stroke-linejoin="round"/>
<g clip-path="url(#clip0_4_55)">
<circle cx="6.50001" cy="17.5" r="5.41667" fill="#DC2D2D"/>
<path d="M6.50001 22.9167C9.49155 22.9167 11.9167 20.4916 11.9167 17.5C11.9167 14.5085 9.49155 12.0833 6.50001 12.0833C3.50847 12.0833 1.08334 14.5085 1.08334 17.5C1.08334 20.4916 3.50847 22.9167 6.50001 22.9167Z" stroke="#A91313" stroke-width="1.5" stroke-linecap="round" stroke-linejoin="round"/>
<path d="M4.5849 19.4151L8.41506 15.5849" stroke="white" stroke-linecap="round" stroke-linejoin="round"/>
<path d="M4.5849 15.5849L8.41506 19.4151" stroke="white" stroke-linecap="round" stroke-linejoin="round"/>
</g>
<defs>
<clipPath id="clip0_4_55">
<rect width="13" height="13" fill="white" transform="translate(0 11)"/>
</clipPath>
</defs>
</svg>
