<svg width="24" height="24" viewBox="0 0 24 24" fill="none" xmlns="http://www.w3.org/2000/svg">
<path d="M19.1817 1.49963C20.0618 1.49982 20.9061 1.84987 21.5284 2.47229C22.1505 3.09475 22.5002 3.93888 22.5001 4.81897C22.4999 5.69918 22.1499 6.54333 21.5274 7.16565L8.18073 20.5143L8.17975 20.5153C7.89004 20.804 7.53396 21.0173 7.14264 21.1364H7.14166L2.78912 22.4567H2.78815C2.61526 22.5086 2.43099 22.5134 2.25592 22.4694C2.081 22.4253 1.92168 22.3341 1.79401 22.2067C1.66628 22.0791 1.57464 21.9197 1.53033 21.7448C1.48604 21.5697 1.49036 21.3855 1.54205 21.2125L1.54303 21.2106L2.86334 16.859L2.86432 16.8571C2.98449 16.4654 3.19921 16.1092 3.48932 15.8199L16.834 2.47131C17.4565 1.84898 18.3015 1.49952 19.1817 1.49963Z" fill="#57C063" stroke="black" stroke-linecap="round" stroke-linejoin="round"/>
<path d="M3.5 16.5L4 16L8 20L7.5 20.5L2.5 22H2V21.5L3.5 16.5Z" fill="#FFC255"/>
<path d="M17.5 2.5L19 1.5L21.5 2.5L22.5 4.5L21.5 6.5L19 9L15 5L15.5 4.5L17.5 2.5Z" fill="#62778B"/>
<path d="M15 5L19 9" stroke="black" stroke-linecap="round" stroke-linejoin="round"/>
<path d="M4 16L8 20" stroke="black" stroke-linecap="round" stroke-linejoin="round"/>
<path d="M2 20L3 21L4 22H2V20Z" fill="black"/>
<path d="M22.9844 5.35336C23.045 4.66972 22.9287 3.98199 22.6467 3.35629C22.3646 2.73059 21.9263 2.18796 21.374 1.78063C20.8216 1.3733 20.1737 1.11497 19.4926 1.03045C18.8115 0.94593 18.1201 1.03807 17.4849 1.29803L16.828 1.82437L17.7879 2.03842C18.2961 1.83045 18.8492 1.75675 19.3941 1.82437C19.939 1.89198 20.4573 2.09866 20.8992 2.42452C21.3411 2.75039 21.6917 3.18446 21.9173 3.68502C22.143 4.18558 22.236 4.73576 22.1875 5.28268L22.9844 5.35336Z" fill="black"/>
</svg>
